<svg xmlns="http://www.w3.org/2000/svg" width="42.835" height="62.023" viewBox="0 0 42.835 62.023">
  <g id="ND_Logo" transform="translate(0 0.026)">
    <path id="Path_1" data-name="Path 1" d="M118.629,88.01l-6.188.869-.044,23.4-.006,2.616-.031,17.343,6.314-.888,0-2.614-3.5.493,0-2.535,3.21-.451,0-2.559-3.21.451.018-9.633,3.378-.475.126-.018,0-2.616-3.5.493.024-12.427L118.44,99l.006-2.557-3.21.451.011-5.8,3.377-.475.006-2.614" transform="translate(-99.725 -78.137)" fill="#231f20"/>
    <path id="Path_2" data-name="Path 2" d="M977.188,553.631l.03-16.718.91-.128a1.19,1.19,0,0,1,1.328.534,5.1,5.1,0,0,1,.381,2.362l-.009,10.8a4.64,4.64,0,0,1-.39,2.241,1.62,1.62,0,0,1-1.237.769l-1.012.143m1.5-19.483-4.545.639-.04,21.861,4.442-.624a4.368,4.368,0,0,0,3.351-2.011,9.849,9.849,0,0,0,1.022-4.987l.007-9.861a6.588,6.588,0,0,0-1-4.048,3.243,3.243,0,0,0-3.237-.967" transform="translate(-973.247 -500.896)" fill="#231f20"/>
    <path id="Path_3" data-name="Path 3" d="M302.208,340.17l-2.653.372-.035,17.525,2.653-.373.035-17.524" transform="translate(-265.839 -301.942)" fill="#231f20"/>
    <path id="Path_4" data-name="Path 4" d="M990.817,244.084a6.44,6.44,0,0,0-2.77,1.019,6.233,6.233,0,0,0-2.537,4.536v2.8l-.017,8.99.189,5.407-3.894-11.4-2.2.309-.037,19.925,2.586-.364.013-7.144L982,262.948,986,274.755l1.993-.28.042-22.394.007-3.246a2.7,2.7,0,0,1,2.684-2.452,2.325,2.325,0,0,1,2.924,2.753l2.526-.354s.774-5.561-5.36-4.7" transform="translate(-978.084 -243.421)" fill="#231f20"/>
    <path id="Path_5" data-name="Path 5" d="M1157.994,338.55l-2.136.3-1.649,13.624-1.254-13.216-2.375.337,2.093,18.5h0l-.012,7.106-.035,21.253v2.888l13.429-1.888.163-.022,2.277-.32h.008c.213-.029,4.2-.661,4.214-5.986.009-5-3.044-5.071-4.263-4.9a3.631,3.631,0,0,0-.494.1V378.9a1.977,1.977,0,0,1,.316-.067c.687-.1,2.259-.021,2.255,2.692-.006,2.576-1.3,3.092-2.827,3.307-.48.067-.984.1-1.478.168h0l-10.94,1.537v-.45l.017-11.191,3.872-.544-.017,9.765,2.654-.372.035-17.542-2.654.373-.019,5.311-3.872.544.014-7.606.014-7.106h-.007l1.626-12.724,2.286,18.394,2.642-.371,2.033-19.083-2.385.337-1.158,13.557-2.373-19.279" transform="translate(-1129.881 -327.347)" fill="#231f20"/>
    <path id="Path_6" data-name="Path 6" d="M111.049,82.71l-6.188.87-.044,23.395,0,2.617-.033,17.342,6.315-.887,0-2.614-3.5.491,0-2.535,3.21-.451,0-2.558-3.209.451.017-9.635,3.378-.475.126-.017,0-2.617-3.5.493.022-12.427,3.21-.451,0-2.558-3.209.452.01-5.8,3.378-.475,0-2.616" transform="translate(-92.998 -73.433)" fill="#d39000"/>
    <path id="Path_7" data-name="Path 7" d="M969.6,548.4l.031-16.718.91-.128a1.192,1.192,0,0,1,1.327.534,5.134,5.134,0,0,1,.381,2.368l-.009,10.795a4.649,4.649,0,0,1-.389,2.24,1.622,1.622,0,0,1-1.237.77l-1.012.142m1.5-19.482-4.551.633-.04,21.86,4.443-.624a4.376,4.376,0,0,0,3.351-2.009,9.826,9.826,0,0,0,1.022-4.987l.01-9.854a6.588,6.588,0,0,0-1-4.048,3.241,3.241,0,0,0-3.237-.966" transform="translate(-966.51 -496.26)" fill="#d39000"/>
    <path id="Path_8" data-name="Path 8" d="M294.636,334.87l-2.652.373-.035,17.524,2.652-.372.035-17.525" transform="translate(-259.121 -297.238)" fill="#d39000"/>
    <path id="Path_9" data-name="Path 9" d="M983.265,238.777a6.447,6.447,0,0,0-2.771,1.019,6.227,6.227,0,0,0-2.536,4.537v2.8l-.016,8.99.189,5.408-3.9-11.407-2.2.309L972,270.357l2.586-.364.013-7.144-.148-5.207,4,11.807,1.993-.28.042-22.4v-3.245a2.7,2.7,0,0,1,2.685-2.454,2.326,2.326,0,0,1,2.924,2.754l2.526-.355s.774-5.559-5.36-4.7" transform="translate(-971.383 -238.71)" fill="#d39000"/>
    <path id="Path_10" data-name="Path 10" d="M1150.432,333.26l-2.137.3-1.649,13.623-1.252-13.216-2.375.337,2.093,18.5h0l-.013,7.106-.035,21.253-.006,2.887,13.43-1.887.163-.024,2.276-.319h.009c.211-.03,4.2-.662,4.214-5.987.009-5-3.044-5.071-4.263-4.9a3.59,3.59,0,0,0-.494.1v2.573a1.933,1.933,0,0,1,.316-.069c.688-.1,2.26-.02,2.249,2.693,0,2.576-1.3,3.091-2.827,3.306-.48.067-.983.106-1.476.169h0l-10.944,1.539v-.45l.016-11.191,3.872-.544-.016,9.766,2.653-.373.035-17.542-2.653.372-.015,5.321-3.871.544.015-7.606.012-7.106h-.007l1.627-12.724,2.285,18.4,2.644-.372,2.033-19.082-2.385.337-1.156,13.547-2.374-19.279" transform="translate(-1123.172 -322.651)" fill="#d39000"/>
  </g>
</svg>
